<mxfile host="app.diagrams.net" modified="2020-06-19T19:35:00.182Z" agent="5.0 (Windows)" etag="rrSt2IYSNGWIopaP7Nq4" version="13.3.0" type="github">
  <diagram id="4H3C6y133TBLyjkACZzV" name="Page-1">
    <mxGraphModel dx="2000" dy="1163" grid="1" gridSize="10" guides="1" tooltips="1" connect="1" arrows="1" fold="1" page="1" pageScale="1" pageWidth="1100" pageHeight="850" math="0" shadow="0">
      <root>
        <mxCell id="0" />
        <mxCell id="1" parent="0" />
        <mxCell id="swh_3I5a9t29y9-tjOv8-1" value="" style="rounded=1;whiteSpace=wrap;html=1;strokeColor=none;fillColor=#dae8fc;" vertex="1" parent="1">
          <mxGeometry x="250" y="180" width="370" height="180" as="geometry" />
        </mxCell>
        <mxCell id="swh_3I5a9t29y9-tjOv8-2" value="" style="rounded=1;whiteSpace=wrap;html=1;strokeColor=#d6b656;fillColor=#fff2cc;" vertex="1" parent="1">
          <mxGeometry x="380" y="31.33" width="113.98" height="130" as="geometry" />
        </mxCell>
        <mxCell id="swh_3I5a9t29y9-tjOv8-3" value="" style="rounded=1;whiteSpace=wrap;html=1;strokeColor=#9673a6;fillColor=#e1d5e7;" vertex="1" parent="1">
          <mxGeometry x="180" y="414" width="110" height="146" as="geometry" />
        </mxCell>
        <mxCell id="swh_3I5a9t29y9-tjOv8-4" value="" style="rounded=1;whiteSpace=wrap;html=1;strokeColor=#82b366;fillColor=#d5e8d4;" vertex="1" parent="1">
          <mxGeometry x="528.01" y="427" width="120" height="120" as="geometry" />
        </mxCell>
        <mxCell id="swh_3I5a9t29y9-tjOv8-5" style="edgeStyle=orthogonalEdgeStyle;rounded=0;orthogonalLoop=1;jettySize=auto;html=1;exitX=1;exitY=0.5;exitDx=0;exitDy=0;exitPerimeter=0;" edge="1" parent="1" source="swh_3I5a9t29y9-tjOv8-8">
          <mxGeometry relative="1" as="geometry">
            <mxPoint x="436.78" y="220" as="targetPoint" />
          </mxGeometry>
        </mxCell>
        <mxCell id="swh_3I5a9t29y9-tjOv8-6" style="edgeStyle=orthogonalEdgeStyle;curved=1;orthogonalLoop=1;jettySize=auto;html=1;exitX=1;exitY=0.75;exitDx=0;exitDy=0;exitPerimeter=0;entryX=0.502;entryY=-0.029;entryDx=0;entryDy=0;entryPerimeter=0;" edge="1" parent="1" source="swh_3I5a9t29y9-tjOv8-8" target="swh_3I5a9t29y9-tjOv8-24">
          <mxGeometry relative="1" as="geometry">
            <mxPoint x="306.78" y="230" as="targetPoint" />
          </mxGeometry>
        </mxCell>
        <mxCell id="swh_3I5a9t29y9-tjOv8-7" style="edgeStyle=orthogonalEdgeStyle;curved=1;orthogonalLoop=1;jettySize=auto;html=1;exitX=1;exitY=0.25;exitDx=0;exitDy=0;exitPerimeter=0;entryX=0.498;entryY=-0.029;entryDx=0;entryDy=0;entryPerimeter=0;" edge="1" parent="1" source="swh_3I5a9t29y9-tjOv8-8" target="swh_3I5a9t29y9-tjOv8-26">
          <mxGeometry relative="1" as="geometry">
            <mxPoint x="556.78" y="230" as="targetPoint" />
          </mxGeometry>
        </mxCell>
        <mxCell id="swh_3I5a9t29y9-tjOv8-8" value="" style="points=[[0.015,0.015,0],[0.985,0.015,0],[0.985,0.985,0],[0.015,0.985,0],[0.25,0,0],[0.5,0,0],[0.75,0,0],[1,0.25,0],[1,0.5,0],[1,0.75,0],[0.75,1,0],[0.5,1,0],[0.25,1,0],[0,0.75,0],[0,0.5,0],[0,0.25,0]];verticalLabelPosition=bottom;html=1;verticalAlign=top;aspect=fixed;align=center;pointerEvents=1;shape=mxgraph.cisco19.rect;prIcon=load_balancer;rotation=90;" vertex="1" parent="1">
          <mxGeometry x="390.4800000000001" y="60.00000000000001" width="93.02" height="72.67" as="geometry" />
        </mxCell>
        <mxCell id="swh_3I5a9t29y9-tjOv8-9" value="" style="group;" vertex="1" connectable="0" parent="1">
          <mxGeometry x="190" y="430" width="90" height="120" as="geometry" />
        </mxCell>
        <mxCell id="swh_3I5a9t29y9-tjOv8-10" value="" style="html=1;verticalLabelPosition=bottom;align=center;labelBackgroundColor=#ffffff;verticalAlign=top;strokeWidth=2;shadow=0;dashed=0;shape=mxgraph.ios7.icons.locked;" vertex="1" parent="swh_3I5a9t29y9-tjOv8-9">
          <mxGeometry width="90" height="120" as="geometry" />
        </mxCell>
        <mxCell id="swh_3I5a9t29y9-tjOv8-11" style="edgeStyle=orthogonalEdgeStyle;curved=1;orthogonalLoop=1;jettySize=auto;html=1;exitX=1;exitY=0.7;exitDx=0;exitDy=0;exitPerimeter=0;entryX=0.323;entryY=1;entryDx=0;entryDy=0;entryPerimeter=0;" edge="1" parent="1" source="swh_3I5a9t29y9-tjOv8-12" target="swh_3I5a9t29y9-tjOv8-8">
          <mxGeometry relative="1" as="geometry">
            <mxPoint x="400" as="targetPoint" />
            <Array as="points">
              <mxPoint x="160" y="80" />
            </Array>
          </mxGeometry>
        </mxCell>
        <mxCell id="swh_3I5a9t29y9-tjOv8-12" value="" style="outlineConnect=0;dashed=0;verticalLabelPosition=bottom;verticalAlign=top;align=center;html=1;shape=mxgraph.aws3.internet_3;fillColor=#D2D3D3;gradientColor=none;" vertex="1" parent="1">
          <mxGeometry x="80" y="20" width="79.5" height="54" as="geometry" />
        </mxCell>
        <mxCell id="swh_3I5a9t29y9-tjOv8-13" value="&lt;h1&gt;HAProxy&lt;/h1&gt;&lt;p&gt;Load balancing&lt;/p&gt;" style="text;html=1;strokeColor=none;fillColor=none;spacing=5;spacingTop=-20;whiteSpace=wrap;overflow=hidden;rounded=0;" vertex="1" parent="1">
          <mxGeometry x="493.98" y="50" width="172.47" height="73.66" as="geometry" />
        </mxCell>
        <mxCell id="swh_3I5a9t29y9-tjOv8-14" value="&lt;h1&gt;Vault&lt;/h1&gt;&lt;p&gt;credentials/secrets management&lt;/p&gt;" style="text;html=1;strokeColor=none;fillColor=none;spacing=5;spacingTop=-20;whiteSpace=wrap;overflow=hidden;rounded=0;" vertex="1" parent="1">
          <mxGeometry x="290" y="450" width="190" height="80" as="geometry" />
        </mxCell>
        <mxCell id="swh_3I5a9t29y9-tjOv8-15" value="&lt;h1&gt;Nomad&lt;/h1&gt;&lt;p&gt;application/data-service/microservice hosting&lt;/p&gt;" style="text;html=1;strokeColor=none;fillColor=none;spacing=5;spacingTop=-20;whiteSpace=wrap;overflow=hidden;rounded=0;" vertex="1" parent="1">
          <mxGeometry x="620" y="210" width="249.53" height="80" as="geometry" />
        </mxCell>
        <mxCell id="swh_3I5a9t29y9-tjOv8-16" value="&lt;p style=&quot;line-height: 100%&quot;&gt;&lt;/p&gt;&lt;h1&gt;Consul&lt;/h1&gt;&lt;p&gt;service discovery&lt;/p&gt;&lt;p&gt;service configuration management&lt;/p&gt;&lt;p&gt;networking segmentation rules/flow (+ ingress)&lt;/p&gt;&lt;p&gt;mtls between services (because consul proxies)&lt;/p&gt;&lt;p&gt;these 3 being a service mesh (discovery, configuration, network segmentation)&lt;/p&gt;&lt;p&gt;&lt;/p&gt;" style="text;html=1;strokeColor=none;fillColor=none;spacing=5;spacingTop=-20;whiteSpace=wrap;overflow=hidden;rounded=0;" vertex="1" parent="1">
          <mxGeometry x="648.01" y="414" width="281.99" height="186" as="geometry" />
        </mxCell>
        <mxCell id="swh_3I5a9t29y9-tjOv8-17" value="" style="endArrow=classic;startArrow=classic;html=1;exitX=0.309;exitY=0.95;exitDx=0;exitDy=0;entryX=0.294;entryY=0.052;entryDx=0;entryDy=0;entryPerimeter=0;exitPerimeter=0;" edge="1" parent="1" source="swh_3I5a9t29y9-tjOv8-24" target="swh_3I5a9t29y9-tjOv8-10">
          <mxGeometry width="50" height="50" relative="1" as="geometry">
            <mxPoint x="284.1228903263484" y="324.7992850365388" as="sourcePoint" />
            <mxPoint x="560" y="240" as="targetPoint" />
            <Array as="points">
              <mxPoint x="216" y="390" />
            </Array>
          </mxGeometry>
        </mxCell>
        <mxCell id="swh_3I5a9t29y9-tjOv8-18" value="" style="endArrow=classic;startArrow=classic;html=1;exitX=0.289;exitY=0.943;exitDx=0;exitDy=0;entryX=0.516;entryY=-0.005;entryDx=0;entryDy=0;entryPerimeter=0;exitPerimeter=0;" edge="1" parent="1" source="swh_3I5a9t29y9-tjOv8-25" target="swh_3I5a9t29y9-tjOv8-10">
          <mxGeometry width="50" height="50" relative="1" as="geometry">
            <mxPoint x="414.1228903263484" y="314.7992850365382" as="sourcePoint" />
            <mxPoint x="247" y="430" as="targetPoint" />
            <Array as="points">
              <mxPoint x="236" y="390" />
            </Array>
          </mxGeometry>
        </mxCell>
        <mxCell id="swh_3I5a9t29y9-tjOv8-19" value="" style="endArrow=classic;startArrow=classic;html=1;exitX=0.673;exitY=0.943;exitDx=0;exitDy=0;entryX=0.25;entryY=0;entryDx=0;entryDy=0;exitPerimeter=0;" edge="1" parent="1" source="swh_3I5a9t29y9-tjOv8-24">
          <mxGeometry width="50" height="50" relative="1" as="geometry">
            <mxPoint x="329.4371096736518" y="324.7992850365388" as="sourcePoint" />
            <mxPoint x="565.855644677438" y="442.17607178923527" as="targetPoint" />
            <Array as="points">
              <mxPoint x="566" y="390" />
            </Array>
          </mxGeometry>
        </mxCell>
        <mxCell id="swh_3I5a9t29y9-tjOv8-20" value="" style="endArrow=classic;startArrow=classic;html=1;exitX=0.654;exitY=0.929;exitDx=0;exitDy=0;entryX=0.5;entryY=0;entryDx=0;entryDy=0;exitPerimeter=0;" edge="1" parent="1" source="swh_3I5a9t29y9-tjOv8-25">
          <mxGeometry width="50" height="50" relative="1" as="geometry">
            <mxPoint x="459.4371096736518" y="314.7992850365388" as="sourcePoint" />
            <mxPoint x="588.01" y="437" as="targetPoint" />
            <Array as="points">
              <mxPoint x="588" y="390" />
            </Array>
          </mxGeometry>
        </mxCell>
        <mxCell id="swh_3I5a9t29y9-tjOv8-21" value="" style="endArrow=classic;startArrow=classic;html=1;exitX=0.327;exitY=0.943;exitDx=0;exitDy=0;entryX=0.706;entryY=0.057;entryDx=0;entryDy=0;entryPerimeter=0;exitPerimeter=0;" edge="1" parent="1" source="swh_3I5a9t29y9-tjOv8-26" target="swh_3I5a9t29y9-tjOv8-10">
          <mxGeometry width="50" height="50" relative="1" as="geometry">
            <mxPoint x="534.122890326358" y="324.79928503651956" as="sourcePoint" />
            <mxPoint x="276.98" y="470" as="targetPoint" />
            <Array as="points">
              <mxPoint x="254" y="390" />
            </Array>
          </mxGeometry>
        </mxCell>
        <mxCell id="swh_3I5a9t29y9-tjOv8-22" value="" style="endArrow=classic;startArrow=classic;html=1;exitX=0.691;exitY=0.936;exitDx=0;exitDy=0;entryX=0.696;entryY=0.011;entryDx=0;entryDy=0;entryPerimeter=0;exitPerimeter=0;" edge="1" parent="1" source="swh_3I5a9t29y9-tjOv8-26">
          <mxGeometry width="50" height="50" relative="1" as="geometry">
            <mxPoint x="579.4371096736418" y="324.799285036519" as="sourcePoint" />
            <mxPoint x="607.6100000000001" y="438.0999999999999" as="targetPoint" />
            <Array as="points">
              <mxPoint x="608" y="390" />
            </Array>
          </mxGeometry>
        </mxCell>
        <mxCell id="swh_3I5a9t29y9-tjOv8-23" value="" style="shadow=0;dashed=0;html=1;labelPosition=center;verticalLabelPosition=bottom;verticalAlign=top;align=center;outlineConnect=0;shape=mxgraph.veeam.magnifying_glass;pointerEvents=1;" vertex="1" parent="1">
          <mxGeometry x="546.51" y="446.9" width="83" height="80.2" as="geometry" />
        </mxCell>
        <mxCell id="swh_3I5a9t29y9-tjOv8-24" value="" style="html=1;verticalLabelPosition=bottom;align=center;labelBackgroundColor=#ffffff;verticalAlign=top;strokeWidth=2;strokeColor=#0080F0;shadow=0;dashed=0;shape=mxgraph.ios7.icons.cube;" vertex="1" parent="1">
          <mxGeometry x="270" y="230" width="80" height="80" as="geometry" />
        </mxCell>
        <mxCell id="swh_3I5a9t29y9-tjOv8-25" value="" style="html=1;verticalLabelPosition=bottom;align=center;labelBackgroundColor=#ffffff;verticalAlign=top;strokeWidth=2;strokeColor=#0080F0;shadow=0;dashed=0;shape=mxgraph.ios7.icons.cube;" vertex="1" parent="1">
          <mxGeometry x="396.99" y="220" width="80" height="80" as="geometry" />
        </mxCell>
        <mxCell id="swh_3I5a9t29y9-tjOv8-26" value="" style="html=1;verticalLabelPosition=bottom;align=center;labelBackgroundColor=#ffffff;verticalAlign=top;strokeWidth=2;strokeColor=#0080F0;shadow=0;dashed=0;shape=mxgraph.ios7.icons.cube;" vertex="1" parent="1">
          <mxGeometry x="520" y="230" width="80" height="80" as="geometry" />
        </mxCell>
        <mxCell id="swh_3I5a9t29y9-tjOv8-27" value="&lt;h1&gt;The Internet&lt;/h1&gt;&lt;p&gt;&lt;br&gt;&lt;/p&gt;" style="text;html=1;strokeColor=none;fillColor=none;spacing=5;spacingTop=-20;whiteSpace=wrap;overflow=hidden;rounded=0;" vertex="1" parent="1">
          <mxGeometry x="160" y="10.170000000000002" width="172.47" height="73.66" as="geometry" />
        </mxCell>
        <mxCell id="swh_3I5a9t29y9-tjOv8-28" value="" style="shape=umlActor;verticalLabelPosition=bottom;labelBackgroundColor=#ffffff;verticalAlign=top;html=1;outlineConnect=0;" vertex="1" parent="1">
          <mxGeometry x="60" y="84" width="30" height="60" as="geometry" />
        </mxCell>
        <mxCell id="swh_3I5a9t29y9-tjOv8-29" value="" style="shape=umlActor;verticalLabelPosition=bottom;labelBackgroundColor=#ffffff;verticalAlign=top;html=1;outlineConnect=0;" vertex="1" parent="1">
          <mxGeometry x="105" y="90" width="30" height="60" as="geometry" />
        </mxCell>
        <mxCell id="swh_3I5a9t29y9-tjOv8-30" value="" style="shape=umlActor;verticalLabelPosition=bottom;labelBackgroundColor=#ffffff;verticalAlign=top;html=1;outlineConnect=0;" vertex="1" parent="1">
          <mxGeometry x="30" y="31" width="30" height="60" as="geometry" />
        </mxCell>
        <mxCell id="swh_3I5a9t29y9-tjOv8-31" value="" style="shape=umlActor;verticalLabelPosition=bottom;labelBackgroundColor=#ffffff;verticalAlign=top;html=1;outlineConnect=0;" vertex="1" parent="1">
          <mxGeometry x="150" y="74" width="30" height="60" as="geometry" />
        </mxCell>
      </root>
    </mxGraphModel>
  </diagram>
</mxfile>
